<?xml version="1.0" encoding="UTF-8"?>
<svg version="1.1" xmlns="http://www.w3.org/2000/svg" width="500" height="500">
<path d="M0 0 C23.1 0 46.2 0 70 0 C71.47186977 2.94373955 71.08181615 5.89015164 71.02172852 9.11181641 C71.01212097 9.84362625 71.00251343 10.5754361 70.99261475 11.329422 C70.95957634 13.75356523 70.91926258 16.17753095 70.87890625 18.6015625 C70.85460986 20.28021617 70.83076606 21.95887644 70.80735779 23.63754272 C70.74446899 28.05993159 70.67541596 32.48220376 70.60510254 36.90447998 C70.53446236 41.41543251 70.46961958 45.92646789 70.40429688 50.4375 C70.27522275 59.29175773 70.13963994 68.14590305 70 77 C67.5 75.625 67.5 75.625 65 74 C65 73.34 65 72.68 65 72 C64.43796875 71.7628125 63.8759375 71.525625 63.296875 71.28125 C60.48105958 69.71052303 58.52044584 67.78528536 56.25 65.5 C55.45078125 64.7059375 54.6515625 63.911875 53.828125 63.09375 C52 61 52 61 52 59 C50.68 58.34 49.36 57.68 48 57 C48 56.34 48 55.68 48 55 C47.01 54.67 46.02 54.34 45 54 C45 44.43 45 34.86 45 25 C38.4 25 31.8 25 25 25 C24.20959414 31.68252224 23.78427117 36.10812307 27.91210938 41.49560547 C32.7276907 46.73417705 37.93752966 51.5464755 43.27172852 56.25097656 C45 58 45 58 45 60 C45.66 60 46.32 60 47 60 C47 60.66 47 61.32 47 62 C47.66 62 48.32 62 49 62 C49 62.66 49 63.32 49 64 C49.66 64 50.32 64 51 64 C51 64.66 51 65.32 51 66 C51.598125 66.268125 52.19625 66.53625 52.8125 66.8125 C54.99847854 67.99917406 56.41332594 69.09599113 58 71 C58 71.66 58 72.32 58 73 C58.66 73 59.32 73 60 73 C60 73.66 60 74.32 60 75 C60.66 75 61.32 75 62 75 C62 75.66 62 76.32 62 77 C62.66 77 63.32 77 64 77 C64 77.66 64 78.32 64 79 C64.61875 79.28875 65.2375 79.5775 65.875 79.875 C68 81 68 81 70 83 C70.26171303 84.83906746 70.26171303 84.83906746 70.2784729 87.11282349 C70.28963638 87.97381653 70.30079987 88.83480957 70.31230164 89.72189331 C70.31446182 90.66847809 70.31662201 91.61506287 70.31884766 92.59033203 C70.32889328 93.58548828 70.3389389 94.58064453 70.34928894 95.60595703 C70.38026443 98.90656945 70.39719594 102.20710026 70.4140625 105.5078125 C70.43276259 107.79182647 70.45233512 110.07583346 70.4727478 112.35983276 C70.52419741 118.38006478 70.56375436 124.40031924 70.60089111 130.4206543 C70.64085051 136.56044115 70.69197953 142.70013366 70.7421875 148.83984375 C70.83909862 160.89316302 70.92345463 172.9465354 71 185 C66.1640625 183.328125 66.1640625 183.328125 64.6875 180.375 C64.460625 179.59125 64.23375 178.8075 64 178 C63.34 178 62.68 178 62 178 C60.4921875 176.1015625 60.4921875 176.1015625 58.875 173.625 C58.06675781 172.40683594 58.06675781 172.40683594 57.2421875 171.1640625 C56 169 56 169 56 167 C55.34 167 54.68 167 54 167 C52.27317815 164.95032466 50.65687285 162.89883729 49.0625 160.75 C48.39831055 159.87021484 48.39831055 159.87021484 47.72070312 158.97265625 C46.86062709 157.83186986 46.00452588 156.68807359 45.15283203 155.54101562 C44.18392871 154.24586151 43.18689664 152.97181769 42.18359375 151.703125 C41 150 41 150 41 148 C40.34 148 39.68 148 39 148 C37.7109375 146.5390625 37.7109375 146.5390625 36.375 144.625 C35.92898437 143.99851562 35.48296875 143.37203125 35.0234375 142.7265625 C34 141 34 141 34 139 C33.34 139 32.68 139 32 139 C30.76318359 137.65478516 30.76318359 137.65478516 29.3984375 135.7890625 C28.90859375 135.12132812 28.41875 134.45359375 27.9140625 133.765625 C27.40617187 133.05921875 26.89828125 132.3528125 26.375 131.625 C25.6015625 130.57699219 25.6015625 130.57699219 24.8125 129.5078125 C21 124.26310351 21 124.26310351 21 122 C20.34 122 19.68 122 19 122 C17.55473264 120.26451831 16.1912778 118.46024037 14.875 116.625 C14.15054688 115.62726563 13.42609375 114.62953125 12.6796875 113.6015625 C11 111 11 111 11 109 C10.34 109 9.68 109 9 109 C7.7109375 107.5390625 7.7109375 107.5390625 6.375 105.625 C5.92898437 104.99851562 5.48296875 104.37203125 5.0234375 103.7265625 C4 102 4 102 4 100 C3.34 100 2.68 100 2 100 C-1.599577 95.63139014 -1.39629871 91.57395594 -1.29296875 86.19921875 C-1.28872391 85.36284378 -1.28447906 84.52646881 -1.28010559 83.66474915 C-1.26337364 81.00533235 -1.22573226 78.346686 -1.1875 75.6875 C-1.17244604 73.87956827 -1.15875888 72.07162461 -1.14648438 70.26367188 C-1.11348816 65.84215311 -1.06174428 61.42120698 -1 57 C2 57 2 57 4 58 C4 58.66 4 59.32 4 60 C4.66 60 5.32 60 6 60 C6 60.66 6 61.32 6 62 C6.66 62 7.32 62 8 62 C8 62.66 8 63.32 8 64 C8.66 64 9.32 64 10 64 C11.4453125 65.46875 11.4453125 65.46875 13.125 67.5 C15.70909493 70.58354185 18.39602295 73.29963231 21.375 76 C24.71933109 79.26832357 25.3364326 80.96763744 25.40234375 85.72265625 C26.46243163 89.76207607 29.55488172 92.67448289 32.31982422 95.70019531 C35.00191562 98.65452538 36.77991414 101.18636021 38 105 C38.66 105 39.32 105 40 105 C40 105.99 40 106.98 40 108 C40.66 108 41.32 108 42 108 C42.99 109.485 42.99 109.485 44 111 C44.08071788 108.20775927 44.14035408 105.41783434 44.1875 102.625 C44.21263672 101.8309375 44.23777344 101.036875 44.26367188 100.21875 C44.29004405 98.14413852 44.15486462 96.06899135 44 94 C43.01 93.34 42.02 92.68 41 92 C41 91.34 41 90.68 41 90 C40.34 90 39.68 90 39 90 C36.375 87.625 36.375 87.625 34 85 C34 84.34 34 83.68 34 83 C33.34 83 32.68 83 32 83 C32 82.34 32 81.68 32 81 C31.34 81 30.68 81 30 81 C30 80.34 30 79.68 30 79 C29.34 79 28.68 79 28 79 C28 78.34 28 77.68 28 77 C27.34 77 26.68 77 26 77 C24.79908779 75.56557708 23.60286158 74.12671029 22.44140625 72.66015625 C20.97294465 70.96883869 19.44094183 69.63865961 17.6875 68.25 C16.800625 67.5075 15.91375 66.765 15 66 C15 65.34 15 64.68 15 64 C14.34 64 13.68 64 13 64 C13 63.34 13 62.68 13 62 C12.34 62 11.68 62 11 62 C9.34375 60.28515625 9.34375 60.28515625 7.5 58.0625 C5.11073001 55.07954821 5.11073001 55.07954821 2 53 C2 52.34 2 51.68 2 51 C1.34 51 0.68 51 0 51 C-0.88385231 47.98323429 -1.09763246 45.36880835 -1.02172852 42.23144531 C-1.00130493 41.2777002 -0.98088135 40.32395508 -0.95983887 39.34130859 C-0.91977722 37.84978271 -0.91977722 37.84978271 -0.87890625 36.328125 C-0.85824097 35.40821777 -0.83757568 34.48831055 -0.81628418 33.54052734 C-0.73762921 30.11021022 -0.649499 26.68011564 -0.5625 23.25 C-0.376875 15.5775 -0.19125 7.905 0 0 Z " fill="#F3F2F2" transform="translate(175,201)"/>
<path d="M0 0 C23.1 0 46.2 0 70 0 C71.65978545 3.31957091 71.15635805 7.03463896 71.16113281 10.68481445 C71.16858017 12.03382843 71.16858017 12.03382843 71.17617798 13.41009521 C71.19081978 16.39449826 71.19760523 19.37884814 71.203125 22.36328125 C71.20887513 24.43352765 71.21463288 26.50377403 71.22039795 28.57402039 C71.23091392 32.91938526 71.23675257 37.2647316 71.24023438 41.61010742 C71.24571798 47.17880694 71.26974073 52.7472618 71.29820633 58.31588459 C71.31682898 62.5941184 71.32203813 66.87229327 71.32357025 71.15056419 C71.32659854 73.2034762 71.33463298 75.25638712 71.34775543 77.30925941 C71.36480672 80.18202951 71.36293777 83.05420181 71.35644531 85.92700195 C71.3656601 86.77550217 71.37487488 87.62400238 71.3843689 88.49821472 C71.35166408 93.11692662 71.0790903 96.28651203 68 100 C67.34 100 66.68 100 66 100 C65.731875 100.7425 65.46375 101.485 65.1875 102.25 C64.04723249 104.89061949 62.90619694 106.85552844 61 109 C60.34 109 59.68 109 59 109 C58.79375 109.66 58.5875 110.32 58.375 111 C56.50875748 115.07180186 54.02438473 118.68796998 51 122 C50.34 122 49.68 122 49 122 C48.60941406 122.84111328 48.60941406 122.84111328 48.2109375 123.69921875 C43.84107176 132.00196366 37.19983046 139.29768083 31.30566406 146.55810547 C27.94396625 150.72846282 24.87156576 154.97496907 22.0859375 159.55859375 C21.72757812 160.03425781 21.36921875 160.50992188 21 161 C20.34 161 19.68 161 19 161 C18.690625 161.61875 18.38125 162.2375 18.0625 162.875 C17.375 164.25 16.6875 165.625 16 167 C15.34 167 14.68 167 14 167 C13.7525 167.70125 13.505 168.4025 13.25 169.125 C11.82819762 172.39514548 10.12753712 175.141122 8 178 C7.34 178 6.68 178 6 178 C5.62875 179.175625 5.62875 179.175625 5.25 180.375 C3.84610901 183.32317108 2.99324263 183.9024777 0 185 C-0.98496347 180.89233815 -1.12573203 177.05185661 -1.12698364 172.83338928 C-1.12854363 172.12281244 -1.13010362 171.4122356 -1.13171089 170.68012613 C-1.13569154 168.30504005 -1.1325426 165.93001817 -1.12939453 163.55493164 C-1.13074988 161.84966494 -1.13253057 160.14439854 -1.13470459 158.43913269 C-1.1392633 153.81106703 -1.13749567 149.18302367 -1.1343255 144.55495763 C-1.13179345 139.71042016 -1.13414184 134.86588459 -1.13571167 130.02134705 C-1.13753106 121.88475197 -1.13513326 113.74816597 -1.13037109 105.61157227 C-1.12493075 96.20772354 -1.12669041 86.80389651 -1.1321975 77.40004832 C-1.13673736 69.32433482 -1.13737484 61.24862785 -1.13475883 53.17291349 C-1.13320064 48.35048692 -1.13298975 43.52807053 -1.13629532 38.70564461 C-1.13918662 34.17076288 -1.13717514 29.63590907 -1.13140106 25.10103035 C-1.13008015 23.43777513 -1.13045623 21.77451756 -1.13266373 20.11126328 C-1.13540155 17.83867538 -1.13196191 15.5661766 -1.12698364 13.29359436 C-1.1264181 11.38692789 -1.1264181 11.38692789 -1.12584114 9.4417429 C-1 6 -1 6 0 0 Z M25 25 C25 53.38 25 81.76 25 111 C27.08882742 111.2094457 27.08882742 111.2094457 28.625 109.6875 C30.31583648 107.97517573 30.31583648 107.97517573 30 105 C30.66 105 31.32 105 32 105 C33.33619621 103.34229079 34.59462139 101.62147984 35.8125 99.875 C39.81318226 94.16416149 39.81318226 94.16416149 42.60498047 91.7109375 C46.77899626 86.68731179 45.60877103 79.79761981 45.48828125 73.6328125 C45.47894568 72.22892521 45.47183308 70.82502153 45.46684265 69.42111206 C45.44783058 65.7414789 45.39878266 62.06284618 45.34332275 58.38360596 C45.29200335 54.62306245 45.26930174 50.8623559 45.24414062 47.1015625 C45.19065541 39.73386797 45.10277022 32.3672021 45 25 C38.4 25 31.8 25 25 25 Z " fill="#F4F4F4" transform="translate(255,201)"/>
<path d="M0 0 C3.45830634 1.99813255 4.73922801 3.16552962 5.9375 7 C6.00358487 10.17207376 5.84071894 11.4580548 4 14 C2.68255183 15.02083695 1.35062412 16.02347951 0 17 C0.84741316 20.32017023 1.73298573 23.62905902 2.625 26.9375 C2.97884766 28.32678711 2.97884766 28.32678711 3.33984375 29.74414062 C4.96826055 35.6941251 7.13404283 40.25620946 10.80615234 45.22485352 C12 47 12 47 12 49 C15.70324751 50.0243025 17.81598698 50.51680047 21.3984375 48.953125 C22.97815 48.0431288 24.54070874 47.10251273 26.08203125 46.12890625 C28 45 28 45 30 45 C30.268125 44.360625 30.53625 43.72125 30.8125 43.0625 C32 41 32 41 35 40 C35.70674629 38.68747118 36.36184656 37.34721283 37 36 C38.33194058 34.23774016 39.68712526 32.50046447 41.07421875 30.78125 C42.20588604 29.03157822 42.20588604 29.03157822 41.6953125 27 C41.46585938 26.34 41.23640625 25.68 41 25 C39.55721679 18.78493387 39.55721679 18.78493387 41.375 15.5625 C45.20562078 13.28236858 48.65118492 13.20258022 53 14 C55.125 15.5625 55.125 15.5625 56 18 C55.67272727 24.32727273 55.67272727 24.32727273 53 27 C51.01178687 27.39764263 49.01055661 27.73775349 47 28 C46.76256749 29.93337898 46.52585066 31.86684886 46.29296875 33.80078125 C46.04973571 35.62665063 45.72285676 37.44114485 45.375 39.25 C44.84333324 44.56666758 45.43445455 49.70127413 46 55 C46.66 55 47.32 55 48 55 C48 55.66 48 56.32 48 57 C55.69387846 57.64115654 60.82056663 54.80325476 66.9375 50.3125 C69.79971968 47.7820376 70.51027124 45.90478779 70.9375 42.125 C70.98965491 40.75083156 71.02138876 39.37499147 71 38 C71.66 38 72.32 38 73 38 C73 37.34 73 36.68 73 36 C76.05263664 35.01879536 77.94736336 35.01879536 81 36 C81 36.66 81 37.32 81 38 C81.66 38 82.32 38 83 38 C83 39.98 83 41.96 83 44 C82.34 44 81.68 44 81 44 C81 44.66 81 45.32 81 46 C79.80503906 46.33257812 78.61007812 46.66515625 77.37890625 47.0078125 C72.16285772 48.97574276 69.90113908 52.31724822 66.9375 56.875 C66.17215942 58.00325195 66.17215942 58.00325195 65.39135742 59.15429688 C61.62294424 64.79944793 58.28275292 70.60957577 55.20703125 76.65625 C54 79 54 79 53 80 C50.89080862 80.12417998 48.77746261 80.17804203 46.66479492 80.20532227 C45.66866936 80.22017166 45.66866936 80.22017166 44.65242004 80.23532104 C42.42847332 80.26718297 40.20450752 80.29187048 37.98046875 80.31640625 C36.40903756 80.33703516 34.83761118 80.3580329 33.26618958 80.37937927 C29.93945297 80.42352907 26.61269735 80.46435608 23.28588867 80.50268555 C19.13927584 80.55053983 14.99277378 80.60445956 10.84626579 80.66059303 C2.70725368 80.77050559 -5.43168089 80.85930975 -13.57115364 80.92713356 C-18.63667242 80.97129518 -23.70118268 81.04082658 -28.76616001 81.12667561 C-32.1116367 81.17968681 -35.45716101 81.21604774 -38.80289268 81.24864006 C-40.38729481 81.26761836 -41.97163021 81.29358876 -43.55579567 81.3269062 C-45.74145577 81.37186367 -47.9260149 81.39186951 -50.11206055 81.40600586 C-51.9688166 81.43324989 -51.9688166 81.43324989 -53.86308289 81.46104431 C-57.62094099 80.90873801 -58.69483989 79.94733509 -61 77 C-62.14830872 75.18535617 -63.23143381 73.32802058 -64.25 71.4375 C-65.03117187 70.01244141 -65.03117187 70.01244141 -65.828125 68.55859375 C-67 66 -67 66 -67 63 C-67.66 63 -68.32 63 -69 63 C-69.33 61.68 -69.66 60.36 -70 59 C-70.66 59 -71.32 59 -72 59 C-73.2087998 57.42127834 -74.34380299 55.78553783 -75.4375 54.125 C-78.99542633 48.73047671 -81.89135114 46.99195071 -88 45 C-89 44 -89 44 -89.0625 40.9375 C-89.041875 39.968125 -89.02125 38.99875 -89 38 C-88.34 38 -87.68 38 -87 38 C-87 37.34 -87 36.68 -87 36 C-79.59743291 35.51458576 -79.59743291 35.51458576 -77 37.625 C-75.76309247 40.56265539 -75.86538811 42.83662059 -76 46 C-75.34495729 49.08091355 -75.34495729 49.08091355 -73.125 50.0625 C-72.42375 50.371875 -71.7225 50.68125 -71 51 C-70.01 51.66 -69.02 52.32 -68 53 C-68 53.66 -68 54.32 -68 55 C-67.38125 55.144375 -66.7625 55.28875 -66.125 55.4375 C-64 56 -64 56 -62 57 C-58.58461856 57.58369443 -58.58461856 57.58369443 -55 57 C-51.78563638 54.1153147 -51.15484845 52.32501007 -50.65625 48.05859375 C-50.46471759 41.2990957 -50.62016181 34.03897559 -54 28 C-56.98283157 26.30834699 -56.98283157 26.30834699 -60 26 C-61.87264676 24.12735324 -61.23607378 21.50240053 -61.328125 19.0078125 C-61 17 -61 17 -59.765625 15.26953125 C-56.94905738 13.24434436 -54.46434602 13.52643503 -51.09765625 13.65234375 C-49 14 -49 14 -46.9375 15.625 C-45.43551661 19.43002458 -45.63679354 22.64623047 -46.6875 26.5625 C-47.11335189 29.88414474 -45.83032494 31.29111909 -44 34 C-44 34.66 -44 35.32 -44 36 C-43.34 36 -42.68 36 -42 36 C-40.71968359 37.5422662 -39.50018065 39.13531433 -38.3125 40.75 C-34.83594825 45.1964593 -32.21236713 47.83637591 -27 50 C-23.75479825 50.37734904 -21.11910624 49.92417963 -18 49 C-18 48.34 -18 47.68 -18 47 C-17.34 47 -16.68 47 -16 47 C-15.62875 46.0409375 -15.62875 46.0409375 -15.25 45.0625 C-14.5702803 43.39718674 -13.87161244 41.73721524 -13.08203125 40.12109375 C-9.51771059 32.70566801 -5.48500815 23.2029676 -8 15 C-8.7734375 14.3503125 -8.7734375 14.3503125 -9.5625 13.6875 C-11.60173038 11.29362086 -11.53791767 8.99837713 -11.4140625 5.94140625 C-11 4 -11 4 -8.875 1.5 C-5.48749667 -0.26739304 -3.7664742 -0.6277457 0 0 Z " fill="#F6F5F5" transform="translate(253,113)"/>
<path d="M0 0 C2.09765625 0.34765625 2.09765625 0.34765625 4.16015625 1.97265625 C5.66213964 5.77768083 5.46086271 8.99388672 4.41015625 12.91015625 C3.98430436 16.23180099 5.26733131 17.63877534 7.09765625 20.34765625 C7.09765625 21.00765625 7.09765625 21.66765625 7.09765625 22.34765625 C7.75765625 22.34765625 8.41765625 22.34765625 9.09765625 22.34765625 C10.47014306 23.90081011 11.77244326 25.51651309 13.03515625 27.16015625 C15.26865649 30.05326964 17.43638423 32.83655005 20.09765625 35.34765625 C18.44765625 35.01765625 16.79765625 34.68765625 15.09765625 34.34765625 C15.09765625 33.68765625 15.09765625 33.02765625 15.09765625 32.34765625 C12.12765625 33.00765625 9.15765625 33.66765625 6.09765625 34.34765625 C5.76765625 36.65765625 5.43765625 38.96765625 5.09765625 41.34765625 C3.11765625 41.34765625 1.13765625 41.34765625 -0.90234375 41.34765625 C-0.7425 40.81398437 -0.58265625 40.2803125 -0.41796875 39.73046875 C1.30025148 31.79020859 1.14432429 21.57809989 -2.90234375 14.34765625 C-5.88517532 12.65600324 -5.88517532 12.65600324 -8.90234375 12.34765625 C-10.77499051 10.47500949 -10.13841753 7.85005678 -10.23046875 5.35546875 C-9.90234375 3.34765625 -9.90234375 3.34765625 -8.66796875 1.6171875 C-5.85140113 -0.40799939 -3.36668977 -0.12590872 0 0 Z " fill="#DAD7D7" transform="translate(201.90234375,126.65234375)"/>
<path d="M0 0 C3.45830634 1.99813255 4.73922801 3.16552962 5.9375 7 C6.00358487 10.17207376 5.84071894 11.4580548 4 14 C2.68 14.99 1.36 15.98 0 17 C0.66 20.3 1.32 23.6 2 27 C0 26 0 26 -1.125 22.9375 C-1.41375 21.968125 -1.7025 20.99875 -2 20 C-2.66 20.33 -3.32 20.66 -4 21 C-4.73075648 23.3140622 -5.40138258 25.64828869 -6 28 C-6.66 28 -7.32 28 -8 28 C-7.88140625 27.18015625 -7.7628125 26.3603125 -7.640625 25.515625 C-7.51171875 24.43796875 -7.3828125 23.3603125 -7.25 22.25 C-7.04117188 20.64898437 -7.04117188 20.64898437 -6.828125 19.015625 C-7.0457145 15.19791824 -8.24723689 14.49583856 -11 12 C-11.78274563 9.2360982 -11.65741545 6.78972816 -11 4 C-7.72794548 0.1505241 -4.96702569 -0.82783761 0 0 Z " fill="#E4E3E2" transform="translate(253,113)"/>
<path d="M0 0 C7.40256709 -0.48541424 7.40256709 -0.48541424 10 1.625 C11.23690753 4.56265539 11.13461189 6.83662059 11 10 C11.65504271 13.08091355 11.65504271 13.08091355 13.875 14.0625 C14.57625 14.371875 15.2775 14.68125 16 15 C16.99 15.66 17.98 16.32 19 17 C19 17.66 19 18.32 19 19 C19.57234375 19.14308594 20.1446875 19.28617188 20.734375 19.43359375 C21.48203125 19.62050781 22.2296875 19.80742187 23 20 C23.70640625 20.17660156 24.4128125 20.35320312 25.140625 20.53515625 C27.09375 21.0234375 29.046875 21.51171875 31 22 C31 22.33 31 22.66 31 23 C26.52572076 23.08948558 22.39436211 22.85743651 18 22 C18.33 23.32 18.66 24.64 19 26 C19.66 26 20.32 26 21 26 C20.67 27.32 20.34 28.64 20 30 C20 29.01 20 28.02 20 27 C19.34 27 18.68 27 18 27 C17.67 25.68 17.34 24.36 17 23 C16.34 23 15.68 23 15 23 C13.7912002 21.42127834 12.65619701 19.78553783 11.5625 18.125 C8.00457367 12.73047671 5.10864886 10.99195071 -1 9 C-2 8 -2 8 -2.0625 4.9375 C-2.041875 3.968125 -2.02125 2.99875 -2 2 C-1.34 2 -0.68 2 0 2 C0 1.34 0 0.68 0 0 Z " fill="#A3A09F" transform="translate(166,149)"/>
<path d="M0 0 C4.8 2.46153846 4.8 2.46153846 5.8125 5.1875 C5.874375 5.785625 5.93625 6.38375 6 7 C6.66 7 7.32 7 8 7 C9.37248681 8.55315386 10.67478701 10.16885684 11.9375 11.8125 C14.17100024 14.70561339 16.33872798 17.4888938 19 20 C17.35 19.67 15.7 19.34 14 19 C14 18.34 14 17.68 14 17 C11.03 17.66 8.06 18.32 5 19 C4.67 21.31 4.34 23.62 4 26 C2.02 26 0.04 26 -2 26 C-1.83628906 25.43684082 -1.67257813 24.87368164 -1.50390625 24.29345703 C-0.97285802 21.87646717 -0.90184424 19.77632526 -0.9375 17.3046875 C-0.94523438 16.42425781 -0.95296875 15.54382813 -0.9609375 14.63671875 C-0.97382813 13.72535156 -0.98671875 12.81398437 -1 11.875 C-1.02545645 10.05995478 -1.04650746 8.24484077 -1.0625 6.4296875 C-1.07410156 5.62772949 -1.08570313 4.82577148 -1.09765625 3.99951172 C-1 2 -1 2 0 0 Z " fill="#F0EDEC" transform="translate(203,142)"/>
<path d="M0 0 C2.125 1.5625 2.125 1.5625 3 4 C2.67272727 10.32727273 2.67272727 10.32727273 0 13 C-1.98821313 13.39764263 -3.98944339 13.73775349 -6 14 C-6.33 16.64 -6.66 19.28 -7 22 C-7.33 22 -7.66 22 -8 22 C-8.33 20.35 -8.66 18.7 -9 17 C-9.66 17 -10.32 17 -11 17 C-10.95875 16.236875 -10.9175 15.47375 -10.875 14.6875 C-10.77919176 11.77281584 -10.77919176 11.77281584 -13 9 C-13.49003513 5.81477169 -13.27344388 4.43988798 -11.5625 1.6875 C-7.80380899 -0.78773555 -4.37569035 -0.80234776 0 0 Z " fill="#EEECEC" transform="translate(306,127)"/>
<path d="M0 0 C0 0.66 0 1.32 0 2 C0.66 2 1.32 2 2 2 C2 3.98 2 5.96 2 8 C1.34 8 0.68 8 0 8 C0 8.66 0 9.32 0 10 C-1.19625 10.33 -2.3925 10.66 -3.625 11 C-8.79551754 12.88604287 -11.15578337 16.46433636 -14 21 C-14.33 20.01 -14.66 19.02 -15 18 C-16.32 18.33 -17.64 18.66 -19 19 C-14 14 -14 14 -12.375 12.625 C-10.58779752 10.51285161 -10.51053867 9.04543365 -10.3125 6.3125 C-10.24675781 5.50425781 -10.18101562 4.69601563 -10.11328125 3.86328125 C-10.07589844 3.24839844 -10.03851563 2.63351563 -10 2 C-9.34 2 -8.68 2 -8 2 C-8 1.34 -8 0.68 -8 0 C-4.71023192 -1.09658936 -3.28696233 -0.79953138 0 0 Z " fill="#E0DEDD" transform="translate(334,149)"/>
<path d="M0 0 C0.33 0 0.66 0 1 0 C1.00808685 1.00589172 1.01617371 2.01178345 1.02450562 3.04815674 C1.1019647 12.5242206 1.18970345 22.00014084 1.28752708 31.476017 C1.33748919 36.34775185 1.3838193 41.21946503 1.421875 46.09130859 C1.4587288 50.79223401 1.50508912 55.49297805 1.55806351 60.19374847 C1.57660693 61.98786998 1.59171509 63.78203037 1.60334396 65.57621002 C1.62020728 68.08777978 1.64924239 70.5989342 1.68115234 73.11035156 C1.68331253 73.85338028 1.68547272 74.596409 1.68769836 75.36195374 C1.74775735 79.05822258 1.95627642 81.85769942 4 85 C2.02 85.99 2.02 85.99 0 87 C-1.09493962 82.62134722 -1.0991868 78.38513697 -1.02172852 73.9050293 C-1.01212097 73.10450638 -1.00251343 72.30398346 -0.99261475 71.47920227 C-0.95974283 68.84411494 -0.91936587 66.20919958 -0.87890625 63.57421875 C-0.85459358 61.74291075 -0.8307506 59.91159647 -0.80735779 58.08027649 C-0.74463097 53.26830867 -0.67553217 48.45645271 -0.60510254 43.64459229 C-0.53431595 38.73121215 -0.46956083 33.81775292 -0.40429688 28.90429688 C-0.27543156 19.26944432 -0.13983397 9.63469917 0 0 Z " fill="#F1EEEA" transform="translate(255,299)"/>
<path d="M0 0 C2.64 0 5.28 0 8 0 C8.54466387 4.084979 9 7.8725485 9 12 C7.53984709 11.71758359 6.08190207 11.42373386 4.625 11.125 C3.81289062 10.96257812 3.00078125 10.80015625 2.1640625 10.6328125 C0 10 0 10 -2 8 C-2.125 4.875 -2.125 4.875 -2 2 C-1.34 2 -0.68 2 0 2 C0 1.34 0 0.68 0 0 Z " fill="#F9F8F6" transform="translate(166,149)"/>
<path d="M0 0 C0.33 0 0.66 0 1 0 C1.33 16.5 1.66 33 2 50 C-3 48 -3 48 -4.1875 45.4375 C-4.455625 44.633125 -4.72375 43.82875 -5 43 C-5.66 42.67 -6.32 42.34 -7 42 C-5.33388095 41.957279 -3.66617115 41.95936168 -2 42 C-1.67 42.33 -1.34 42.66 -1 43 C-0.67 28.81 -0.34 14.62 0 0 Z " fill="#F2EEEB" transform="translate(244,336)"/>
<path d="M0 0 C0.33 0 0.66 0 1 0 C1 1.65 1 3.3 1 5 C1.66 5 2.32 5 3 5 C4.625 7 4.625 7 6 9 C5.40703125 9.24492187 4.8140625 9.48984375 4.203125 9.7421875 C1.63301274 11.20952109 0.45470034 12.72292225 -1.25 15.125 C-1.77078125 15.84945312 -2.2915625 16.57390625 -2.828125 17.3203125 C-3.21484375 17.87460938 -3.6015625 18.42890625 -4 19 C-4.33 18.01 -4.66 17.02 -5 16 C-6.32 16.33 -7.64 16.66 -9 17 C-4 12 -4 12 -2.375 10.625 C-0.58779752 8.51285161 -0.51053867 7.04543365 -0.3125 4.3125 C-0.24675781 3.50425781 -0.18101562 2.69601563 -0.11328125 1.86328125 C-0.07589844 1.24839844 -0.03851563 0.63351563 0 0 Z " fill="#B9B6B4" transform="translate(324,151)"/>
<path d="M0 0 C0.33 0 0.66 0 1 0 C1.0825 1.11375 1.165 2.2275 1.25 3.375 C1.59973089 6.97801306 1.59973089 6.97801306 3.75 8.4375 C6.25089531 9.06272383 8.43169956 9.14268336 11 9 C11 8.34 11 7.68 11 7 C11.66 7 12.32 7 13 7 C12.67 5.68 12.34 4.36 12 3 C12.66 3 13.32 3 14 3 C14.33 2.34 14.66 1.68 15 1 C14.25 7.75 14.25 7.75 12 10 C10.01178687 10.39764263 8.01055661 10.73775349 6 11 C5.67 13.64 5.34 16.28 5 19 C4.67 19 4.34 19 4 19 C3.67 17.35 3.34 15.7 3 14 C2.34 14 1.68 14 1 14 C1.04125 13.236875 1.0825 12.47375 1.125 11.6875 C1.22080824 8.77281584 1.22080824 8.77281584 -1 6 C-1.1875 3.375 -1.1875 3.375 -1 1 C-0.67 0.67 -0.34 0.34 0 0 Z " fill="#8D8988" transform="translate(294,130)"/>
<path d="M0 0 C0.33 0 0.66 0 1 0 C1 14.19 1 28.38 1 43 C2.485 42.505 2.485 42.505 4 42 C3.01 44.475 3.01 44.475 2 47 C1.34 47 0.68 47 0 47 C0 31.49 0 15.98 0 0 Z " fill="#EEEDED" transform="translate(278,270)"/>
<path d="M0 0 C0.33 0 0.66 0 1 0 C1.01981934 0.58491211 1.03963867 1.16982422 1.06005859 1.77246094 C1.15553481 4.43208025 1.26512142 7.09093838 1.375 9.75 C1.4059375 10.67039062 1.436875 11.59078125 1.46875 12.5390625 C1.50742187 13.42851562 1.54609375 14.31796875 1.5859375 15.234375 C1.6173584 16.05131836 1.6487793 16.86826172 1.68115234 17.70996094 C2.02343693 20.16832958 2.7739277 21.85759999 4 24 C2.02 24.99 2.02 24.99 0 26 C-1.97965319 17.53148356 -1.33875854 8.53458569 0 0 Z " fill="#B7B0B0" transform="translate(255,360)"/>
<path d="M0 0 C0.33 0 0.66 0 1 0 C1.103125 1.051875 1.20625 2.10375 1.3125 3.1875 C1.75146516 6.95739131 1.75146516 6.95739131 3.625 9.625 C5 12 5 12 4.6875 14.8125 C4.460625 15.534375 4.23375 16.25625 4 17 C2.02 17 0.04 17 -2 17 C-1.76990234 16.21882813 -1.76990234 16.21882813 -1.53515625 15.421875 C-0.86017489 12.36721485 -0.65588882 9.36984029 -0.4375 6.25 C-0.35371094 5.07953125 -0.26992187 3.9090625 -0.18359375 2.703125 C-0.12300781 1.81109375 -0.06242188 0.9190625 0 0 Z " fill="#D9D8D7" transform="translate(203,151)"/>
<path d="M0 0 C1 2 1 2 1 5 C-1.1875 6.9375 -1.1875 6.9375 -4 9 C-7.53669544 11.55194674 -7.53669544 11.55194674 -10 15 C-10.66 15 -11.32 15 -12 15 C-12.33 15.99 -12.66 16.98 -13 18 C-13.99 18.33 -14.98 18.66 -16 19 C-16.66 18.34 -17.32 17.68 -18 17 C-13.25 14 -13.25 14 -11 14 C-10.731875 13.360625 -10.46375 12.72125 -10.1875 12.0625 C-9 10 -9 10 -6 9 C-5.29605388 7.68596724 -4.63654342 6.3479743 -4 5 C-2.6949419 3.31110128 -1.36639342 1.6396721 0 0 Z " fill="#9E9C9C" transform="translate(294,144)"/>
<path d="M0 0 C0.99 0.33 1.98 0.66 3 1 C3 8.26 3 15.52 3 23 C2.34 23 1.68 23 1 23 C0.15808218 20.0751367 -0.11819313 17.49258344 -0.09765625 14.453125 C-0.09443359 13.60878906 -0.09121094 12.76445312 -0.08789062 11.89453125 C-0.07951172 11.02183594 -0.07113281 10.14914062 -0.0625 9.25 C-0.05798828 8.36183594 -0.05347656 7.47367187 -0.04882812 6.55859375 C-0.037074 4.37232671 -0.02064249 2.18619821 0 0 Z " fill="#A09F9E" transform="translate(219,294)"/>
<path d="M0 0 C0.70125 0.721875 1.4025 1.44375 2.125 2.1875 C4.92770745 4.99823813 7.92262792 7.49516226 11 10 C10.01 10.495 10.01 10.495 9 11 C8.01 10.67 7.02 10.34 6 10 C6 9.34 6 8.68 6 8 C4.02 8.33 2.04 8.66 0 9 C-1.125 7.3125 -1.125 7.3125 -2 5 C-1.125 2.25 -1.125 2.25 0 0 Z " fill="#CDCBCA" transform="translate(211,151)"/>
<path d="M0 0 C0.99 0.33 1.98 0.66 3 1 C3.33 1.99 3.66 2.98 4 4 C5.32 3.67 6.64 3.34 8 3 C8.66 6.3 9.32 9.6 10 13 C8 12 8 12 6.875 8.9375 C6.58625 7.968125 6.2975 6.99875 6 6 C5.01 6.495 5.01 6.495 4 7 C3.26924352 9.3140622 2.59861742 11.64828869 2 14 C1.34 14 0.68 14 0 14 C0.08378906 13.15695313 0.16757813 12.31390625 0.25390625 11.4453125 C0.35574219 10.34960938 0.45757812 9.25390625 0.5625 8.125 C0.66691406 7.03445312 0.77132812 5.94390625 0.87890625 4.8203125 C1.22639404 2.04847977 1.22639404 2.04847977 0 0 Z " fill="#9F9C9A" transform="translate(245,127)"/>
<path d="M0 0 C0.825 0.28875 1.65 0.5775 2.5 0.875 C6.30795181 2.09898451 10.11270827 3.0616882 14 4 C14 4.33 14 4.66 14 5 C9.52572076 5.08948558 5.39436211 4.85743651 1 4 C1.33 5.32 1.66 6.64 2 8 C2.66 8 3.32 8 4 8 C3.67 9.32 3.34 10.64 3 12 C3 11.01 3 10.02 3 9 C2.34 9 1.68 9 1 9 C-1.09230769 4.56923077 -1.09230769 4.56923077 -0.625 1.6875 C-0.41875 1.130625 -0.2125 0.57375 0 0 Z " fill="#B5B3B2" transform="translate(183,167)"/>
<path d="M0 0 C3.62528568 -0.20140476 5.86501708 0.14223235 9 2 C9 3.98 9 5.96 9 8 C6.625 7.3125 6.625 7.3125 4 6 C2.8125 3.4375 2.8125 3.4375 2 1 C1.34 0.67 0.68 0.34 0 0 Z " fill="#ADABAB" transform="translate(237,378)"/>
<path d="M0 0 C2.64 0 5.28 0 8 0 C8 0.33 8 0.66 8 1 C6.02 1.33 4.04 1.66 2 2 C1.67 3.98 1.34 5.96 1 8 C3.97 8.495 3.97 8.495 7 9 C7 9.66 7 10.32 7 11 C0.25 10.25 0.25 10.25 -2 8 C-2.125 4.875 -2.125 4.875 -2 2 C-1.34 2 -0.68 2 0 2 C0 1.34 0 0.68 0 0 Z " fill="#B3ACB0" transform="translate(166,149)"/>
<path d="M0 0 C0.99 0 1.98 0 3 0 C1.35821735 4.77609498 -1.26546702 8.79382904 -4 13 C-4.33 12.01 -4.66 11.02 -5 10 C-4.67 9.34 -4.34 8.68 -4 8 C-4.66 7.67 -5.32 7.34 -6 7 C-4.625 5.5 -4.625 5.5 -3 4 C-2.34 4 -1.68 4 -1 4 C-0.67 2.68 -0.34 1.36 0 0 Z " fill="#B7B5B3" transform="translate(316,170)"/>
<path d="M0 0 C0.66 0.33 1.32 0.66 2 1 C2 1.66 2 2.32 2 3 C2.99 3.33 3.98 3.66 5 4 C4.67 4.66 4.34 5.32 4 6 C3.34 6 2.68 6 2 6 C1.67 6.99 1.34 7.98 1 9 C0.67 8.01 0.34 7.02 0 6 C-0.66 6 -1.32 6 -2 6 C-1.125 1.125 -1.125 1.125 0 0 Z " fill="#D6D5D6" transform="translate(259,373)"/>
<path d="M0 0 C0.33 0 0.66 0 1 0 C1 1.65 1 3.3 1 5 C1.66 5 2.32 5 3 5 C4.625 7 4.625 7 6 9 C5.38125 9.28875 4.7625 9.5775 4.125 9.875 C1.86674235 10.93720042 1.86674235 10.93720042 0 13 C-0.96661363 9.87819599 -0.98988909 7.47916205 -0.5625 4.25 C-0.46066406 3.45078125 -0.35882813 2.6515625 -0.25390625 1.828125 C-0.17011719 1.22484375 -0.08632813 0.6215625 0 0 Z " fill="#949190" transform="translate(324,151)"/>
<path d="M0 0 C0.33 0 0.66 0 1 0 C0.25 6.75 0.25 6.75 -2 9 C-5.125 9.125 -5.125 9.125 -8 9 C-8 8.67 -8 8.34 -8 8 C-6.35 8 -4.7 8 -3 8 C-3 7.34 -3 6.68 -3 6 C-2.34 6 -1.68 6 -1 6 C-1.33 4.68 -1.66 3.36 -2 2 C-1.34 2 -0.68 2 0 2 C0 1.34 0 0.68 0 0 Z " fill="#B1B0B0" transform="translate(308,131)"/>
<path d="M0 0 C0.99 0.33 1.98 0.66 3 1 C0.525 4.465 0.525 4.465 -2 8 C-4 5 -4 5 -4 3 C-2.68 3 -1.36 3 0 3 C0 2.01 0 1.02 0 0 Z " fill="#ADABAC" transform="translate(297,329)"/>
<path d="M0 0 C0.33 0 0.66 0 1 0 C1 1.98 1 3.96 1 6 C1.99 5.67 2.98 5.34 4 5 C3.34 6.65 2.68 8.3 2 10 C1.34 10 0.68 10 0 10 C0 6.7 0 3.4 0 0 Z " fill="#D2CDCD" transform="translate(278,307)"/>
<path d="M0 0 C1.65 1.65 3.3 3.3 5 5 C3.02 5.99 3.02 5.99 1 7 C0 6 0 6 -0.0625 2.9375 C-0.041875 1.968125 -0.02125 0.99875 0 0 Z " fill="#D0D0CE" transform="translate(184,265)"/>
<path d="M0 0 C0.33 0.66 0.66 1.32 1 2 C0.34 2 -0.32 2 -1 2 C-1.33 2.99 -1.66 3.98 -2 5 C-2.99 5.33 -3.98 5.66 -5 6 C-5.66 5.34 -6.32 4.68 -7 4 C-4.69 2.68 -2.38 1.36 0 0 Z " fill="#B3B1B0" transform="translate(283,157)"/>
</svg>
